<?xml version="1.0" encoding="UTF-8" standalone="no"?>
<!-- Created with Inkscape (http://www.inkscape.org/) -->

<svg
   xmlns:dc="http://purl.org/dc/elements/1.1/"
   xmlns:cc="http://creativecommons.org/ns#"
   xmlns:rdf="http://www.w3.org/1999/02/22-rdf-syntax-ns#"
   xmlns:svg="http://www.w3.org/2000/svg"
   xmlns="http://www.w3.org/2000/svg"
   xmlns:xlink="http://www.w3.org/1999/xlink"
   xmlns:sodipodi="http://sodipodi.sourceforge.net/DTD/sodipodi-0.dtd"
   xmlns:inkscape="http://www.inkscape.org/namespaces/inkscape"
   width="400"
   height="400"
   viewBox="0 0 105.83333 105.83334"
   version="1.1"
   id="svg8"
   inkscape:version="0.92.4 (5da689c313, 2019-01-14)"
   sodipodi:docname="dogg.svg">
  <defs
     id="defs2">
    <linearGradient
       inkscape:collect="always"
       id="linearGradient889">
      <stop
         style="stop-color:#fffefe;stop-opacity:1;"
         offset="0"
         id="stop885" />
      <stop
         style="stop-color:#fffefe;stop-opacity:0;"
         offset="1"
         id="stop887" />
    </linearGradient>
    <radialGradient
       inkscape:collect="always"
       xlink:href="#linearGradient889"
       id="radialGradient891"
       cx="56.251339"
       cy="241.24336"
       fx="56.251339"
       fy="241.24336"
       r="50.230647"
       gradientUnits="userSpaceOnUse" />
  </defs>
  <sodipodi:namedview
     id="base"
     pagecolor="#ffffff"
     bordercolor="#666666"
     borderopacity="1.0"
     inkscape:pageopacity="0.0"
     inkscape:pageshadow="2"
     inkscape:zoom="1.4654788"
     inkscape:cx="155.30065"
     inkscape:cy="243.03377"
     inkscape:document-units="mm"
     inkscape:current-layer="layer1"
     showgrid="false"
     units="px"
     inkscape:window-width="1920"
     inkscape:window-height="1001"
     inkscape:window-x="-9"
     inkscape:window-y="-9"
     inkscape:window-maximized="1" />
  <metadata
     id="metadata5">
    <rdf:RDF>
      <cc:Work
         rdf:about="">
        <dc:format>image/svg+xml</dc:format>
        <dc:type
           rdf:resource="http://purl.org/dc/dcmitype/StillImage" />
        <dc:title></dc:title>
      </cc:Work>
    </rdf:RDF>
  </metadata>
  <g
     inkscape:label="Layer 1"
     inkscape:groupmode="layer"
     id="layer1"
     transform="translate(0,-191.16665)">
    <g
       id="g873"
       transform="matrix(1.6326931,0,0,1.6326931,-38.761514,-143.72901)">
      <g
         transform="matrix(0.64523681,0,0,0.64523681,19.856073,81.87013)"
         id="g827">
        <circle
           r="50.007168"
           cy="241.24336"
           cx="56.251339"
           id="path845"
           style="opacity:1;fill:#dcdcdc;fill-opacity:1;fill-rule:evenodd;stroke:#957ca5;stroke-width:0.4469592;stroke-linejoin:round;stroke-miterlimit:4;stroke-dasharray:none;stroke-opacity:1;paint-order:markers fill stroke" />
        <circle
           style="opacity:1;fill:url(#radialGradient891);fill-opacity:1;fill-rule:evenodd;stroke:#957ca5;stroke-width:0.4469592;stroke-linejoin:round;stroke-miterlimit:4;stroke-dasharray:none;stroke-opacity:1;paint-order:markers fill stroke"
           id="circle875"
           cx="56.251339"
           cy="241.24336"
           r="50.007168" />
      </g>
      <g
         transform="translate(0.0539059,-0.87582872)"
         id="g859">
        <g
           id="g839"
           transform="matrix(0.64523681,0,0,0.64523681,22.664678,81.87013)">
          <path
             style="opacity:1;fill:#957ca5;fill-opacity:1;fill-rule:evenodd;stroke:none;stroke-width:6.61458302;stroke-linejoin:round;stroke-miterlimit:4;stroke-dasharray:none;stroke-opacity:1;paint-order:markers fill stroke"
             id="path10"
             sodipodi:type="arc"
             sodipodi:cx="45.812794"
             sodipodi:cy="223.459"
             sodipodi:rx="14.489847"
             sodipodi:ry="14.298351"
             sodipodi:start="0"
             sodipodi:end="3.1415927"
             d="m 60.302641,223.459 a 14.489847,14.298351 0 0 1 -7.244924,12.38274 14.489847,14.298351 0 0 1 -14.489847,-10e-6 14.489847,14.298351 0 0 1 -7.244923,-12.38273 l 14.489847,0 z"
             transform="matrix(-0.8660254,0.5,0.5,0.8660254,0,0)" />
          <path
             transform="rotate(30)"
             d="m 150.04879,171.64403 a 14.489847,14.298351 0 0 1 -7.24492,12.38273 14.489847,14.298351 0 0 1 -14.48985,0 14.489847,14.298351 0 0 1 -7.24492,-12.38273 l 14.48984,0 z"
             sodipodi:end="3.1415927"
             sodipodi:start="0"
             sodipodi:ry="14.298351"
             sodipodi:rx="14.489847"
             sodipodi:cy="171.64403"
             sodipodi:cx="135.55894"
             sodipodi:type="arc"
             id="path817"
             style="opacity:1;fill:#957ca5;fill-opacity:1;fill-rule:evenodd;stroke:none;stroke-width:6.61458302;stroke-linejoin:round;stroke-miterlimit:4;stroke-dasharray:none;stroke-opacity:1;paint-order:markers fill stroke" />
        </g>
        <g
           id="g831"
           transform="translate(1.4930995)">
          <path
             transform="scale(-1)"
             d="m -40.230919,-242.42975 a 5.69244,5.6172099 0 0 1 -2.84622,4.86465 5.69244,5.6172099 0 0 1 -5.69244,0 5.69244,5.6172099 0 0 1 -2.84622,-4.86465 l 5.69244,0 z"
             sodipodi:end="3.1415927"
             sodipodi:start="0"
             sodipodi:ry="5.6172099"
             sodipodi:rx="5.69244"
             sodipodi:cy="-242.42975"
             sodipodi:cx="-45.923359"
             sodipodi:type="arc"
             id="path819"
             style="opacity:1;fill:#957ca5;fill-opacity:1;fill-rule:evenodd;stroke:none;stroke-width:2.59858632;stroke-linejoin:round;stroke-miterlimit:4;stroke-dasharray:none;stroke-opacity:1;paint-order:markers fill stroke" />
          <path
             style="opacity:1;fill:#957ca5;fill-opacity:1;fill-rule:evenodd;stroke:none;stroke-width:2.59858632;stroke-linejoin:round;stroke-miterlimit:4;stroke-dasharray:none;stroke-opacity:1;paint-order:markers fill stroke"
             id="path821"
             sodipodi:type="arc"
             sodipodi:cx="-63.030315"
             sodipodi:cy="-242.42975"
             sodipodi:rx="5.69244"
             sodipodi:ry="5.6172099"
             sodipodi:start="0"
             sodipodi:end="3.1415927"
             d="m -57.337875,-242.42975 a 5.69244,5.6172099 0 0 1 -2.84622,4.86465 5.69244,5.6172099 0 0 1 -5.692441,0 5.69244,5.6172099 0 0 1 -2.846219,-4.86465 l 5.69244,0 z"
             transform="scale(-1)" />
        </g>
        <path
           style="opacity:1;fill:#957ca5;fill-opacity:1;fill-rule:evenodd;stroke:none;stroke-width:2.59858632;stroke-linejoin:round;stroke-miterlimit:4;stroke-dasharray:none;stroke-opacity:1;paint-order:markers fill stroke"
           id="path823"
           sodipodi:type="arc"
           sodipodi:cx="55.969936"
           sodipodi:cy="248.30229"
           sodipodi:rx="5.69244"
           sodipodi:ry="5.6172099"
           sodipodi:start="0"
           sodipodi:end="3.1415927"
           d="m 61.662376,248.30229 a 5.69244,5.6172099 0 0 1 -2.84622,4.86465 5.69244,5.6172099 0 0 1 -5.69244,0 5.69244,5.6172099 0 0 1 -2.84622,-4.86465 l 5.69244,0 z" />
        <path
           style="opacity:1;fill:none;fill-opacity:1;fill-rule:evenodd;stroke:#957ca5;stroke-width:1.63269305;stroke-linejoin:round;stroke-miterlimit:4;stroke-dasharray:none;stroke-opacity:1;paint-order:markers fill stroke"
           d="M 233.2832 261.98828 A 34.662727 35.126958 0 0 0 203.26562 279.55078 A 34.662727 35.126958 0 0 0 203.26562 314.67773 A 34.662727 35.126958 0 0 0 233.2832 332.24219 L 233.2832 297.11523 L 233.2832 261.98828 z "
           transform="matrix(0.16205332,0,0,0.16205332,23.686939,205.99439)"
           id="path833" />
        <path
           transform="matrix(0,1,1,0,0,0)"
           style="opacity:1;fill:none;fill-opacity:1;fill-rule:evenodd;stroke:#957ca5;stroke-width:0.26458332;stroke-linejoin:round;stroke-miterlimit:4;stroke-dasharray:none;stroke-opacity:1;paint-order:markers fill stroke"
           id="path835"
           sodipodi:type="arc"
           sodipodi:cx="254.14291"
           sodipodi:cy="50.416557"
           sodipodi:rx="5.69244"
           sodipodi:ry="5.6172099"
           sodipodi:start="0"
           sodipodi:end="3.1415927"
           d="m 259.83535,50.416557 a 5.69244,5.6172099 0 0 1 -2.84622,4.864647 5.69244,5.6172099 0 0 1 -5.69244,0 5.69244,5.6172099 0 0 1 -2.84622,-4.864647 l 5.69244,0 z" />
      </g>
    </g>
  </g>
</svg>
